<?xml version="1.0" encoding="UTF-8"?>
<svg width="11px" height="10px" viewBox="0 0 11 10" version="1.1" xmlns="http://www.w3.org/2000/svg" xmlns:xlink="http://www.w3.org/1999/xlink">
    <!-- Generator: Sketch 45.2 (43514) - http://www.bohemiancoding.com/sketch -->
    <title>Attention arrow</title>
    <desc>Created with Sketch.</desc>
    <defs></defs>
    <g id="Page-1" stroke="none" stroke-width="1" fill="none" fill-rule="evenodd">
        <g id="Dev-Test-02" transform="translate(-162.000000, -249.000000)" fill="#56CE11">
            <g id="Attention-arrow" transform="translate(162.000000, 249.000000)">
                <path d="M10.6638889,4.12206667 L7.02582222,0.484 C6.67162222,0.1298 6.09497778,0.1298 5.74053333,0.484 C5.38633333,0.838444444 5.38633333,1.41508889 5.74053333,1.76928889 L8.734,4.76275556 L5.73686667,7.76013333 C5.38266667,8.11433333 5.38266667,8.69122222 5.73686667,9.04542222 C6.09106667,9.39962222 6.66771111,9.39962222 7.02215556,9.04542222 L10.6638889,5.41126667 C11.0180889,5.05315556 11.0180889,4.48017778 10.6638889,4.12206667 Z" id="Fill-1"></path>
                <path d="M1.63655556,0.484 C1.28235556,0.1298 0.705711111,0.1298 0.351511111,0.484 C-0.00293333333,0.838444444 -0.00293333333,1.41508889 0.351511111,1.76928889 L3.34497778,4.76275556 L0.351511111,7.75622222 C-0.00293333333,8.11066667 -0.00293333333,8.68731111 0.351511111,9.04151111 C0.705711111,9.39595556 1.28235556,9.39595556 1.63655556,9.04151111 L5.27462222,5.41126667 C5.62882222,5.05706667 5.62882222,4.48017778 5.27462222,4.12597778 L1.63655556,0.484 Z" id="Fill-2"></path>
            </g>
        </g>
    </g>
</svg>