<?xml version="1.0" encoding="UTF-8"?>
<svg width="75px" height="73px" viewBox="0 0 75 73" version="1.1" xmlns="http://www.w3.org/2000/svg" xmlns:xlink="http://www.w3.org/1999/xlink">
    <!-- Generator: Sketch 45.2 (43514) - http://www.bohemiancoding.com/sketch -->
    <title>Automatic</title>
    <desc>Created with Sketch.</desc>
    <defs></defs>
    <g id="Page-1" stroke="none" stroke-width="1" fill="none" fill-rule="evenodd">
        <g id="Dev-Test-01" transform="translate(-344.000000, -311.000000)">
            <circle id="Oval-3" stroke="#E9E9E9" cx="380.5" cy="346.5" r="65"></circle>
            <g id="Page-1" transform="translate(353.000000, 323.000000)" fill="#24C90B">
                <path d="M12.449,22.8470943 L9.09672727,26.2433208 L9.09672727,12.0461887 C9.09672727,7.1565283 13.053303,3.14898113 17.8787879,3.14898113 L45.6365,3.14898113 L45.6365,0.159396226 L17.8126364,0.159396226 C11.3771667,0.159396226 6.14583333,5.45841509 6.14583333,11.9791698 L6.14583333,26.1753962 L2.79356061,22.7791698 L0.716045455,24.8848302 L6.54721212,30.7924528 C6.81628788,31.0650566 7.21766667,31.1990943 7.55289394,31.1990943 C7.88812121,31.1990943 8.2895,31.0650566 8.55857576,30.7924528 L14.3906364,24.8848302 L12.449,22.8470943 Z" id="Fill-1"></path>
                <path d="M58.3089848,22.8470943 L52.4769242,16.938566 C51.8726212,16.3263396 51.0037121,16.3263396 50.3994091,16.938566 L44.5673485,22.8470943 L46.6457576,24.9518491 L49.9980303,21.5556226 L49.9980303,35.7527547 C49.9980303,40.6415094 46.0414545,44.6499623 41.2150758,44.6499623 L13.4546818,44.6499623 L13.4546818,47.6395472 L41.2123939,47.6395472 C47.6478636,47.6395472 52.878303,42.3396226 52.878303,35.8197736 L52.878303,21.4886038 L56.2305758,24.8848302 L58.3089848,22.8470943 Z" id="Fill-2"></path>
                <path d="M17.5435606,29.9076226 C17.5435606,32.4199245 19.1535455,34.5283019 21.0281364,34.5283019 L37.3881212,34.5283019 C39.2671818,34.5283019 40.8735909,32.4235472 40.8735909,29.9076226 L40.8735909,27.9378113 C40.8735909,27.3255849 40.5383636,26.784 40.0002121,26.4443774 L35.7781364,24 C35.0415303,23.5933585 34.7724545,22.6415094 35.0415303,21.8952453 C35.5099545,20.741434 35.7781364,19.4508679 35.7781364,18.0244528 C35.7781364,14.9678491 35.1076818,10.8253585 29.2067879,10.8253585 C23.305,10.8253585 22.6345455,14.9008302 22.6345455,18.0244528 C22.6345455,19.4508679 22.9036212,20.741434 23.3720455,21.8952453 C23.7072727,22.7085283 23.3720455,23.5933585 22.6345455,24 L18.3436364,26.5113962 C17.8054848,26.784 17.4702576,27.3962264 17.4702576,28.0048302 L17.4702576,29.9076226 L17.5435606,29.9076226 Z M29.2103636,13.7443019 C32.0942121,13.7443019 32.8317121,14.6282264 32.8317121,17.9538113 C32.8317121,20.5367547 31.5569545,23.1830943 29.2103636,23.1830943 C26.8637727,23.1830943 25.5890152,20.4661132 25.5890152,17.9538113 C25.5890152,14.6246038 26.3256212,13.7443019 29.2103636,13.7443019 Z M21.2972121,28.2095094 L25.4531364,25.8321509 C25.9206667,25.5604528 26.4588182,25.5604528 26.9960758,25.7651321 C27.6665303,26.0377358 28.4701818,26.2396981 29.2765152,26.2396981 C30.0792727,26.2396981 30.8203485,26.1047547 31.5569545,25.7651321 C32.0244848,25.5604528 32.6287879,25.5604528 33.0998939,25.8321509 L37.2558182,28.2095094 C37.7930758,28.4821132 38.128303,29.0943396 38.128303,29.7029434 L38.128303,29.9076226 L38.128303,29.9076226 C38.128303,30.7924528 37.3255455,31.538717 36.4521667,31.538717 L22.2403182,31.538717 C21.3669394,31.538717 20.5641818,30.8594717 20.5641818,29.9076226 C20.5641818,29.9076226 20.5641818,29.9076226 20.5641818,29.8406038 L20.5641818,29.6359245 C20.428303,29.0273208 20.7635303,28.4821132 21.2972121,28.2095094 Z" id="Fill-3"></path>
            </g>
        </g>
    </g>
</svg>