<?xml version="1.0" encoding="UTF-8"?>
<svg width="20px" height="21px" viewBox="0 0 20 21" version="1.1" xmlns="http://www.w3.org/2000/svg" xmlns:xlink="http://www.w3.org/1999/xlink">
    <!-- Generator: Sketch 45.2 (43514) - http://www.bohemiancoding.com/sketch -->
    <title>Bin</title>
    <desc>Created with Sketch.</desc>
    <defs></defs>
    <g id="Page-1" stroke="none" stroke-width="1" fill="none" fill-rule="evenodd">
        <g id="Dev-Test-02" transform="translate(-629.000000, -413.000000)">
            <rect id="Rectangle-12" stroke="#E9E9E9" x="161.5" y="398.5" width="570" height="46"></rect>
            <g id="Icon" transform="translate(631.000000, 414.000000)" fill="#60687B">
                <path d="M15.2691692,2.50387692 L11.4230154,2.50387692 L11.4230154,1.48455385 C11.4230154,0.734523077 10.8268308,0.138338462 10.0770462,0.138338462 L5.9424,0.138338462 C5.19236923,0.138338462 4.59618462,0.734523077 4.59618462,1.48455385 L4.59618462,2.50387692 L0.750030769,2.50387692 C0.423138462,2.50387692 0.173046154,2.75396923 0.173046154,3.08086154 C0.173046154,3.40775385 0.423138462,3.6576 0.750030769,3.6576 L1.55766154,3.6576 L2.15384615,16.1577846 C2.19224615,17.1000615 2.94227692,17.8308923 3.88455385,17.8308923 L12.1346462,17.8308923 C13.0769231,17.8308923 13.8269538,17.1000615 13.8653538,16.1577846 L14.4615385,3.6384 L15.2691692,3.6384 C15.5960615,3.6384 15.8461538,3.38855385 15.8461538,3.06166154 C15.8461538,2.73452308 15.5768615,2.50387692 15.2691692,2.50387692 Z M5.9424,1.29230769 L10.0770462,1.29230769 C10.1922462,1.29230769 10.2692923,1.36910769 10.2692923,1.48455385 L10.2692923,2.50387692 L5.74990769,2.50387692 L5.74990769,1.48455385 C5.74990769,1.36910769 5.82695385,1.29230769 5.9424,1.29230769 Z M12.7116308,16.1191385 C12.6921846,16.4268308 12.4423385,16.6769231 12.1346462,16.6769231 L3.86535385,16.6769231 C3.55766154,16.6769231 3.30781538,16.4268308 3.28836923,16.1191385 L2.69243077,3.6576 L13.2883692,3.6576 L12.7116308,16.1191385 Z" id="Fill-1"></path>
                <path d="M8,6.15778462 C7.67310769,6.15778462 7.42301538,6.40763077 7.42301538,6.73452308 L7.42301538,13.4653538 C7.42301538,13.7922462 7.67310769,14.0423385 8,14.0423385 C8.32689231,14.0423385 8.57698462,13.7922462 8.57698462,13.4653538 L8.57698462,6.73452308 C8.57698462,6.42683077 8.32689231,6.15778462 8,6.15778462 Z" id="Fill-2"></path>
                <path d="M5.78855385,6.31163077 C5.69230769,6.23458462 5.59606154,6.17698462 5.46166154,6.15778462 L5.38461538,6.15778462 L5.38461538,6.15778462 C5.38461538,6.15778462 5.38461538,6.15778462 5.36541538,6.15778462 L5.28836923,6.15778462 C5.17316923,6.17698462 5.05772308,6.23458462 4.98067692,6.33083077 C4.88467692,6.44627692 4.82683077,6.59987692 4.82683077,6.75396923 L5.05772308,13.4845538 C5.07692308,13.7922462 5.32701538,14.0423385 5.65390769,14.0423385 C5.80775385,14.0423385 5.9424,13.9652923 6.0576,13.8500923 C6.15384615,13.7346462 6.21144615,13.5808 6.21144615,13.4269538 L5.9808,6.69612308 C5.9808,6.56147692 5.90375385,6.42683077 5.78855385,6.31163077 Z" id="Fill-3"></path>
                <path d="M10.7116308,6.17698462 L10.6153846,6.15778462 L10.6153846,6.15778462 L10.5191385,6.15778462 C10.2306462,6.19618462 10.0384,6.42683077 10.0192,6.71532308 L9.78855385,13.4461538 C9.78855385,13.6 9.84615385,13.7538462 9.9424,13.8500923 C10.0576,13.9652923 10.1922462,14.0231385 10.3652923,14.0423385 C10.6729846,14.0423385 10.9230769,13.7922462 10.9422769,13.4845538 L11.1731692,6.75396923 C11.1731692,6.59987692 11.1153231,6.44627692 11.0193231,6.35003077 C10.9422769,6.25378462 10.8268308,6.19618462 10.7116308,6.17698462 Z" id="Fill-4"></path>
            </g>
        </g>
    </g>
</svg>