<?xml version="1.0" encoding="UTF-8"?>
<svg width="75px" height="73px" viewBox="0 0 75 73" version="1.1" xmlns="http://www.w3.org/2000/svg" xmlns:xlink="http://www.w3.org/1999/xlink">
    <!-- Generator: Sketch 45.2 (43514) - http://www.bohemiancoding.com/sketch -->
    <title>Children</title>
    <desc>Created with Sketch.</desc>
    <defs></defs>
    <g id="Page-1" stroke="none" stroke-width="1" fill="none" fill-rule="evenodd">
        <g id="Dev-Test-01" transform="translate(-498.000000, -584.000000)">
            <rect id="Rectangle-10" stroke="#E9E9E9" x="468.5" y="556.5" width="130" height="130" rx="8"></rect>
            <path d="M528.832773,602 C530.592907,602 532.183333,602.71208 533.339173,603.863333 C534.490427,605.014587 535.202507,606.6096 535.202507,608.369733 C535.202507,610.12528 534.490427,611.720293 533.339173,612.874987 C532.18792,614.02624 530.592907,614.73832 528.832773,614.73832 C527.07264,614.73832 525.482213,614.02624 524.326373,612.874987 C523.176267,611.720293 522.46304,610.129867 522.46304,608.369733 C522.46304,606.6096 523.176267,605.019173 524.326373,603.863333 C525.477627,602.707493 527.07264,602 528.832773,602 Z M544.16944,602 C545.929573,602 547.52,602.71208 548.67584,603.863333 C549.827093,605.014587 550.539173,606.6096 550.539173,608.369733 C550.539173,610.12528 549.827093,611.720293 548.67584,612.874987 C547.524587,614.02624 545.929573,614.73832 544.16944,614.73832 C542.409307,614.73832 540.81888,614.02624 539.66304,612.874987 C538.512933,611.720293 537.799707,610.129867 537.799707,608.369733 C537.799707,606.6096 538.512933,605.019173 539.66304,603.863333 C540.814293,602.707493 542.409307,602 544.16944,602 Z M542.55264,617.009867 C542.620293,617.1532 542.65584,617.31488 542.65584,617.484587 C542.65584,617.8068 542.808347,618.107227 543.05488,618.32624 C543.332373,618.57736 543.72568,618.734453 544.16944,618.734453 C544.6132,618.734453 545.007653,618.57736 545.285147,618.32624 C545.53168,618.107227 545.68304,617.8068 545.68304,617.484587 C545.68304,617.31488 545.719733,617.157787 545.78624,617.009867 C545.91696,616.512213 546.36416,616.149867 546.901947,616.149867 L547.538347,616.149867 C549.0164,616.149867 550.363733,616.714027 551.349867,617.618747 C552.357787,618.5464 552.985013,619.8364 552.985013,621.255973 L552.985013,628.49488 C552.985013,629.886933 552.38416,631.15056 551.408347,632.078213 C550.70888,632.740987 549.813333,633.22832 548.81,633.457653 L548.81,645.573333 C548.81,646.209733 548.295147,646.72 547.663333,646.72 C547.03152,646.72 546.516667,646.205147 546.516667,645.573333 L546.516667,625.659173 C546.516667,625.022773 547.026933,624.512507 547.663333,624.512507 C548.299733,624.512507 548.81,625.02736 548.81,625.659173 L548.81,631.06112 C549.19528,630.908613 549.53584,630.685013 549.822507,630.41096 C550.35112,629.909867 550.67792,629.233333 550.67792,628.49488 L550.67792,621.255973 C550.67792,620.50376 550.33736,619.813467 549.7904,619.307787 C549.28472,618.837653 548.599013,618.528053 547.83304,618.461547 C547.644987,619.070427 547.291813,619.608213 546.817093,620.033627 C546.131387,620.65168 545.19112,621.032373 544.160267,621.032373 C543.13056,621.032373 542.19488,620.65168 541.504587,620.033627 C541.029867,619.608213 540.67096,619.070427 540.487493,618.461547 C539.72152,618.528053 539.041547,618.837653 538.530133,619.307787 C537.996933,619.796267 537.665547,620.45904 537.64376,621.18488 L537.64376,628.565973 C537.665547,629.28264 537.988907,629.93624 538.508347,630.42472 C538.7996,630.697627 539.152773,630.922373 539.54264,631.07832 L539.54264,625.66376 C539.54264,625.02736 540.052907,624.517093 540.689307,624.517093 C541.325707,624.517093 541.835973,625.031947 541.835973,625.66376 L541.835973,632.391253 L541.835973,632.480693 L541.835973,632.520827 L541.835973,645.57792 C541.835973,646.21432 541.32112,646.724587 540.689307,646.724587 C540.057493,646.724587 539.54264,646.209733 539.54264,645.57792 L539.54264,633.46568 C538.53472,633.246667 537.639173,632.758187 536.93168,632.095413 C536.774587,631.947493 536.626667,631.791547 536.492507,631.629867 C536.362933,631.78696 536.2196,631.93832 536.067093,632.081653 C535.367627,632.745573 534.47208,633.232907 533.468747,633.46224 L533.468747,645.57792 C533.468747,646.21432 532.953893,646.724587 532.32208,646.724587 C531.690267,646.724587 531.175413,646.209733 531.175413,645.57792 L531.175413,625.66376 C531.175413,625.02736 531.68568,624.517093 532.32208,624.517093 C532.95848,624.517093 533.468747,625.031947 533.468747,625.66376 L533.468747,631.065707 C533.854027,630.9132 534.194587,630.6896 534.481253,630.415547 C534.99152,629.928213 535.31488,629.278053 535.336667,628.565973 L535.336667,621.18488 C535.31488,620.45904 534.982347,619.796267 534.450293,619.307787 C533.943467,618.837653 533.258907,618.528053 532.492933,618.461547 C532.303733,619.070427 531.95056,619.608213 531.47584,620.033627 C530.790133,620.65168 529.849867,621.032373 528.819013,621.032373 C527.789307,621.032373 526.853627,620.65168 526.163333,620.033627 C525.688613,619.608213 525.329707,619.070427 525.14624,618.461547 C524.380267,618.528053 523.700293,618.837653 523.18888,619.307787 C522.643067,619.80888 522.302507,620.50376 522.302507,621.255973 L522.302507,628.49488 C522.302507,629.23792 522.629307,629.91904 523.167093,630.420133 C523.458347,630.69304 523.81152,630.917787 524.201387,631.07488 L524.201387,625.659173 C524.201387,625.022773 524.711653,624.512507 525.348053,624.512507 C525.984453,624.512507 526.49472,625.02736 526.49472,625.659173 L526.49472,632.386667 L526.49472,632.476107 L526.49472,632.51624 L526.49472,645.573333 C526.49472,646.209733 525.979867,646.72 525.348053,646.72 C524.71624,646.72 524.201387,646.205147 524.201387,645.573333 L524.201387,633.46224 C523.193467,633.24208 522.29792,632.7536 521.590427,632.090827 C520.604293,631.16432 520,629.896107 520,628.49488 L520,621.255973 C520,619.8364 520.627227,618.5464 521.635147,617.618747 C522.620133,616.714027 523.968613,616.149867 525.446667,616.149867 L526.083067,616.149867 C526.619707,616.149867 527.068053,616.5168 527.197627,617.009867 C527.26528,617.1532 527.300827,617.31488 527.300827,617.484587 C527.300827,617.8068 527.453333,618.107227 527.699867,618.32624 C527.97736,618.57736 528.371813,618.734453 528.815573,618.734453 C529.258187,618.734453 529.65264,618.57736 529.930133,618.32624 C530.176667,618.107227 530.329173,617.8068 530.329173,617.484587 C530.329173,617.31488 530.36472,617.157787 530.432373,617.009867 C530.561947,616.512213 531.010293,616.149867 531.546933,616.149867 L532.183333,616.149867 C533.661387,616.149867 535.009867,616.714027 535.994853,617.618747 C536.170293,617.77584 536.330827,617.945547 536.478747,618.125573 C536.626667,617.945547 536.788347,617.77584 536.96264,617.618747 C537.947627,616.714027 539.296107,616.149867 540.77416,616.149867 L541.41056,616.149867 C541.948347,616.149867 542.395547,616.5168 542.526267,617.009867 L542.55264,617.009867 Z M547.049867,605.489307 C546.314853,604.754293 545.298907,604.29792 544.174027,604.29792 C543.050293,604.29792 542.0332,604.754293 541.298187,605.489307 C540.56432,606.22432 540.1068,607.240267 540.1068,608.365147 C540.1068,609.48888 540.56432,610.505973 541.298187,611.240987 C542.0332,611.97944 543.050293,612.432373 544.174027,612.432373 C545.298907,612.432373 546.314853,611.974853 547.049867,611.240987 C547.783733,610.505973 548.241253,609.48888 548.241253,608.365147 C548.241253,607.240267 547.783733,606.22432 547.049867,605.489307 Z M531.7132,605.489307 C530.978187,604.754293 529.96224,604.29792 528.83736,604.29792 C527.713627,604.29792 526.696533,604.754293 525.96152,605.489307 C525.227653,606.22432 524.770133,607.240267 524.770133,608.365147 C524.770133,609.48888 525.227653,610.505973 525.96152,611.240987 C526.696533,611.97944 527.713627,612.432373 528.83736,612.432373 C529.96224,612.432373 530.978187,611.974853 531.7132,611.240987 C532.448213,610.505973 532.904587,609.48888 532.904587,608.365147 C532.904587,607.240267 532.448213,606.22432 531.7132,605.489307 Z" id="Page-1" fill="#24C90B"></path>
        </g>
    </g>
</svg>