<?xml version="1.0" encoding="UTF-8"?>
<svg width="75px" height="73px" viewBox="0 0 75 73" version="1.1" xmlns="http://www.w3.org/2000/svg" xmlns:xlink="http://www.w3.org/1999/xlink">
    <!-- Generator: Sketch 45.2 (43514) - http://www.bohemiancoding.com/sketch -->
    <title>Females</title>
    <desc>Created with Sketch.</desc>
    <defs></defs>
    <g id="Page-1" stroke="none" stroke-width="1" fill="none" fill-rule="evenodd">
        <g id="Dev-Test-01" transform="translate(-345.000000, -584.000000)">
            <rect id="Rectangle-10" stroke="#2CCA0C" stroke-width="2" x="316" y="557" width="129" height="129" rx="8"></rect>
            <path d="M387.27257,611.134267 C387.146917,610.707707 386.701343,610.462187 386.271477,610.591147 C385.844917,610.717627 385.602703,611.166507 385.729183,611.59224 L391.29265,630.305493 L386.345877,630.305493 C385.900303,630.305493 385.538223,630.666747 385.538223,631.11232 L385.538223,646.977707 C385.538223,647.758907 384.905823,648.392133 384.123797,648.392133 C383.342597,648.392133 382.70937,647.758907 382.70937,646.977707 L382.703583,631.11232 C382.703583,630.666747 382.341503,630.305493 381.89593,630.305493 C381.450357,630.305493 381.089103,630.666747 381.089103,631.11232 L381.089103,646.977707 C381.089103,647.7556 380.45257,648.392133 379.674677,648.392133 C378.89265,648.392133 378.256943,647.758907 378.256943,646.977707 L378.263557,631.11232 C378.263557,630.666747 377.901477,630.305493 377.455903,630.305493 L372.50913,630.305493 L378.06929,611.59224 C378.19577,611.166507 377.953557,610.717627 377.526997,610.591147 C377.100437,610.462187 376.651557,610.707707 376.525903,611.134267 L370.654917,630.883333 C370.583823,631.128853 370.62929,631.39008 370.781397,631.594267 C370.932677,631.797627 371.171583,631.916667 371.427023,631.916667 L376.64825,631.916667 L376.64825,646.9744 C376.64825,648.64096 378.00481,650 379.677157,650 C380.55921,650 381.343717,649.6156 381.899237,649.01544 C382.45145,649.618907 383.239263,650 384.121317,650 C385.790357,650 387.150223,648.644267 387.150223,646.9744 L387.150223,631.916667 L392.37145,631.916667 C392.623583,631.916667 392.86249,631.797627 393.017077,631.594267 C393.169183,631.39008 393.21713,631.125547 393.143557,630.883333 L387.27257,611.134267 Z M395.678117,620.172213 L391.631583,606.848827 C391.619183,606.806667 391.60265,606.764507 391.583637,606.725653 C391.563797,606.687627 391.55801,606.661173 391.544783,606.63224 C391.522463,606.55784 391.492703,606.484267 391.454677,606.390027 C390.43705,603.235467 387.49577,601.120027 384.121317,601.120027 L379.441557,601.120027 C375.74801,601.120027 372.547983,603.726507 371.850277,607.243147 L368.123663,619.455493 C367.67809,620.905467 368.472517,622.394293 369.929103,622.843173 C370.35153,622.972133 370.803717,622.733227 370.935983,622.309973 C371.06825,621.883413 370.829343,621.434533 370.40361,621.302267 C369.790223,621.112133 369.480223,620.5376 369.66705,619.926693 L373.415983,607.63664 C373.98473,604.795387 376.522597,602.7312 379.44817,602.7312 L384.127103,602.7312 C386.817077,602.7312 389.151583,604.4176 389.940223,606.926533 C389.952623,606.965387 389.969157,607.003413 389.984863,607.042267 C390.004703,607.08112 390.01049,607.106747 390.023717,607.136507 C390.046037,607.21008 390.075797,607.281173 390.111343,607.372107 L394.141343,620.643413 C394.321557,621.227867 394.024783,621.835467 393.465957,622.018987 C393.042703,622.161173 392.817023,622.616667 392.955903,623.03992 C393.069157,623.375547 393.382463,623.592133 393.721397,623.592133 C393.80489,623.592133 393.892517,623.578907 393.97601,623.549973 C395.368117,623.08208 396.117077,621.59656 395.678117,620.172213 Z M381.899237,600.199947 C384.87937,600.199947 387.30481,597.774507 387.30481,594.794373 C387.30481,591.813413 384.87937,589.3888 381.899237,589.3888 C378.915797,589.3888 376.493663,591.813413 376.493663,594.794373 C376.493663,597.7712 378.919103,600.199947 381.899237,600.199947 Z M381.899237,590.996667 C383.99153,590.996667 385.693637,592.698773 385.693637,594.791067 C385.693637,596.88336 383.99153,598.585467 381.899237,598.585467 C379.806943,598.585467 378.104837,596.88336 378.104837,594.791067 C378.104837,592.698773 379.806943,590.996667 381.899237,590.996667 Z" id="Page-1" stroke="#56CE11" stroke-width="0.7" fill="#24C90B"></path>
        </g>
    </g>
</svg>