<?xml version="1.0" encoding="UTF-8"?>
<svg width="75px" height="73px" viewBox="0 0 75 73" version="1.1" xmlns="http://www.w3.org/2000/svg" xmlns:xlink="http://www.w3.org/1999/xlink">
    <!-- Generator: Sketch 45.2 (43514) - http://www.bohemiancoding.com/sketch -->
    <title>Infants</title>
    <desc>Created with Sketch.</desc>
    <defs></defs>
    <g id="Page-1" stroke="none" stroke-width="1" fill="none" fill-rule="evenodd">
        <g id="Dev-Test-01" transform="translate(-652.000000, -584.000000)">
            <rect id="Rectangle-10" stroke="#2CCA0C" stroke-width="2" x="622" y="557" width="129" height="129" rx="8"></rect>
            <path d="M697.837091,645 C695.344931,644.99744 693.324451,642.96992 693.327011,640.4848 L693.332131,637.28224 L692.117411,636.47968 C692.057251,636.44 691.997091,636.39968 691.939491,636.35488 C691.182371,636.54496 690.264611,636.67488 689.774371,636.67744 C689.364771,636.66976 688.814371,636.59232 688.092451,636.40224 C688.057251,636.4272 688.022051,636.45216 687.984931,636.47712 C687.954851,636.4976 687.919651,636.51744 687.887011,636.53472 L686.269731,637.35456 L686.274851,640.48224 C686.277411,642.96992 684.256931,644.99488 681.769891,644.99744 C679.279651,644.99744 677.257251,642.97504 677.254691,640.49248 L677.247011,634.8624 C677.244451,633.3424 678.002211,631.93504 679.269411,631.09472 C681.122211,629.88 682.064931,629.27008 682.551971,628.95968 L682.551971,627.28992 C681.447331,627.92736 680.039971,628.7376 679.619491,628.97504 C677.889571,629.95232 675.969571,629.12736 674.967331,627.80704 C674.192291,626.79008 673.874851,625.67968 674.044451,624.59488 C674.219811,623.48512 674.904611,622.4848 676.027171,621.70464 C676.044451,621.69248 676.062371,621.68224 676.079651,621.672 L684.699811,616.45984 C682.949411,614.99744 681.831971,612.79712 681.831971,610.34208 C681.831971,605.9472 685.407011,602.3696 689.804451,602.3696 C694.199971,602.3696 697.776931,605.94464 697.776931,610.34208 C697.776931,612.81248 696.647331,615.02496 694.879651,616.48736 L703.519651,621.672 C703.544611,621.68736 703.569571,621.70208 703.594531,621.72256 C704.704931,622.53472 705.376931,623.56 705.539491,624.68256 C705.694371,625.75008 705.382051,626.83232 704.637091,627.81216 C703.649571,629.11008 701.634851,629.89984 699.974691,628.97504 C699.344931,628.62496 698.064931,627.88704 697.052451,627.30208 L697.052451,628.96736 C697.539491,629.27712 698.479651,629.88704 700.332451,631.09984 C701.602211,631.93952 702.359971,633.35008 702.357411,634.87008 L702.349731,640.49952 C702.344611,642.9776 700.322211,645 697.837091,645 Z M693.472291,635.07488 L694.819491,635.96704 C695.089571,636.14496 695.249571,636.44704 695.249571,636.7696 L695.244451,640.48736 C695.241891,641.91456 696.404771,643.07744 697.831971,643.08 C699.262371,643.08 700.424611,641.91968 700.424611,640.49248 L700.432291,634.8624 C700.432291,633.99008 699.999651,633.17984 699.271971,632.69984 C698.404771,632.13216 697.154851,631.31488 696.361891,630.8048 L693.472291,635.07488 Z M683.269411,630.7824 C682.479651,631.29248 681.204771,632.12512 680.322211,632.7024 C679.597091,633.1824 679.164451,633.99008 679.164451,634.8624 L679.172131,640.49248 C679.174691,641.91968 680.336931,643.08 681.762211,643.08 C683.194531,643.07744 684.354851,641.91456 684.352291,640.48736 L684.347171,636.7696 C684.347171,636.40736 684.549411,636.07712 684.871971,635.912 L686.482211,635.09472 L683.269411,630.7824 Z M688.447011,634.51232 C689.229731,634.72224 689.599651,634.76 689.757091,634.76 L689.764771,634.76 C690.064931,634.75744 690.917411,634.64224 691.564451,634.47008 L695.132451,629.20224 L695.132451,628.93472 L684.471971,628.93472 L684.471971,629.17728 L688.447011,634.51232 Z M677.097251,623.29952 C676.429731,623.76992 676.027171,624.32224 675.939491,624.8976 C675.829411,625.59712 676.179491,626.23456 676.494371,626.64736 C676.884771,627.15744 677.819811,627.78976 678.674851,627.30464 C679.392291,626.89952 683.031971,624.79968 683.031971,624.79968 C683.329571,624.62752 683.694371,624.63008 683.991971,624.79968 C684.289571,624.96992 684.471971,625.28736 684.471971,625.62976 L684.471971,627.01216 L695.132451,627.01216 L695.132451,625.62976 C695.132451,625.28736 695.317411,624.96992 695.614371,624.79712 C695.911971,624.62496 696.279971,624.62752 696.574371,624.79968 C696.607011,624.81952 699.814691,626.68256 700.907171,627.29248 C701.682211,627.72256 702.699811,627.1824 703.106851,626.6448 C703.404451,626.25504 703.737251,625.64256 703.637411,624.952 C703.552291,624.36 703.154851,623.7872 702.492451,623.28992 L693.039651,617.62464 C692.049571,618.06752 690.951971,618.312 689.799971,618.312 C688.629411,618.312 687.514531,618.05984 686.514851,617.60224 L677.097251,623.29952 Z M689.799971,604.2896 C686.462371,604.2896 683.746851,607.00512 683.746851,610.34208 C683.746851,613.67712 686.462371,616.39456 689.799971,616.39456 C693.136931,616.39456 695.852451,613.67968 695.852451,610.34208 C695.852451,607.00704 693.136931,604.2896 689.799971,604.2896 Z" id="Page-1" stroke="#56CE11" stroke-width="0.3" fill="#24C90B"></path>
        </g>
    </g>
</svg>