<?xml version="1.0" encoding="UTF-8"?>
<svg width="16px" height="16px" viewBox="0 0 16 16" version="1.1" xmlns="http://www.w3.org/2000/svg" xmlns:xlink="http://www.w3.org/1999/xlink">
    <!-- Generator: Sketch 45.2 (43514) - http://www.bohemiancoding.com/sketch -->
    <title>mag</title>
    <desc>Created with Sketch.</desc>
    <defs></defs>
    <g id="Page-1" stroke="none" stroke-width="1" fill="none" fill-rule="evenodd">
        <g id="Dev-Test-02" transform="translate(-581.000000, -296.000000)" fill="#C5C5C5">
            <path d="M594.220474,311.028656 L590.646395,307.454577 C589.666891,308.096682 588.495584,308.471134 587.232298,308.471134 C583.78725,308.471134 581,305.678653 581,302.232298 C581,298.792481 583.785506,296 587.232298,296 C590.671679,296 593.464159,298.792481 593.464159,302.232298 C593.464159,303.434119 593.125452,304.556604 592.539581,305.504723 L596.139379,309.104521 C596.33031,309.290221 596.169893,309.751857 595.787158,310.133284 L595.250545,310.671204 C594.867374,311.054375 594.406175,311.214356 594.220474,311.028656 Z M591.392248,302.232298 C591.392248,299.933274 589.530885,298.070603 587.230554,298.070603 C584.931531,298.070603 583.063629,299.931531 583.063629,302.232298 C583.063629,304.530885 584.931531,306.398787 587.230554,306.398787 C589.529141,306.398787 591.392248,304.532629 591.392248,302.232298 Z" id="mag"></path>
        </g>
    </g>
</svg>