<?xml version="1.0" encoding="UTF-8"?>
<svg width="75px" height="73px" viewBox="0 0 75 73" version="1.1" xmlns="http://www.w3.org/2000/svg" xmlns:xlink="http://www.w3.org/1999/xlink">
    <!-- Generator: Sketch 45.2 (43514) - http://www.bohemiancoding.com/sketch -->
    <title>Males</title>
    <desc>Created with Sketch.</desc>
    <defs></defs>
    <g id="Page-1" stroke="none" stroke-width="1" fill="none" fill-rule="evenodd">
        <g id="Dev-Test-01" transform="translate(-193.000000, -584.000000)">
            <rect id="Rectangle-10" stroke="#E9E9E9" x="162.5" y="556.5" width="130" height="130" rx="8"></rect>
            <path d="M246.252894,619.74536 L242.457454,607.32944 C241.725294,603.65456 238.453454,600.98728 234.675614,600.98728 L225.703134,600.98728 C221.925294,600.98728 218.653454,603.65456 217.941534,607.25024 L214.125854,619.74184 C213.671774,621.22728 214.483134,622.74968 215.968574,623.20376 C216.690174,623.42728 217.443454,623.35864 218.089374,623.01456 C218.735294,622.67136 219.209614,622.08352 219.433134,621.35752 L222.176974,612.29 L222.792094,612.29 L222.792094,647.89216 C222.792094,650.57352 225.177774,652 226.903454,652 C228.075614,652 229.370974,651.58376 230.189374,650.54888 C231.007774,651.58376 232.299614,652 233.475294,652 C235.200974,652 237.586654,650.57352 237.586654,647.89216 L237.583134,612.29 L238.195614,612.29 L240.938574,621.36104 C241.162094,622.08616 241.639934,622.674 242.292894,623.01808 C242.688014,623.22752 243.120974,623.334 243.560974,623.334 C243.843454,623.334 244.125054,623.29352 244.399614,623.20728 C245.122094,622.98376 245.706414,622.50944 246.053134,621.86616 C246.404254,621.22024 246.472894,620.46432 246.252894,619.74536 Z M244.606414,621.09 C244.469134,621.34784 244.224494,621.53968 243.921774,621.63296 C243.629614,621.72184 243.327774,621.7016 243.069934,621.56432 C242.808574,621.42616 242.612334,621.1824 242.523454,620.8832 L239.600974,611.23136 C239.498014,610.88376 239.175054,610.64616 238.814254,610.64616 L236.765614,610.64616 C236.311534,610.64616 235.940174,611.01752 235.940174,611.4716 L235.940174,647.89832 C235.940174,649.77536 234.138814,650.35968 233.478814,650.35968 C232.560974,650.35968 231.020974,650.04024 231.020974,647.89832 L231.017454,631.66672 C231.017454,631.21352 230.646974,630.84216 230.192894,630.84216 C229.738814,630.84216 229.367454,631.21352 229.367454,631.66672 L229.367454,647.89216 C229.367454,650.0332 227.823934,650.35352 226.906974,650.35352 C226.249614,650.35352 224.445614,649.7692 224.445614,647.89216 L224.445614,611.46808 C224.445614,611.014 224.077774,610.64352 223.620174,610.64352 L221.571534,610.64352 C221.207214,610.64352 220.887774,610.88024 220.781294,611.22784 L217.862334,620.87616 C217.769934,621.17888 217.577214,621.42352 217.315854,621.5608 C217.058014,621.69808 216.751774,621.72184 216.456974,621.62944 C215.831294,621.44024 215.514494,620.84536 215.703694,620.2232 L219.539614,607.64888 C220.121294,604.744 222.712894,602.63376 225.706654,602.63376 L234.675614,602.63376 C237.669374,602.63376 240.260974,604.744 240.862894,607.72808 L244.678574,620.2232 C244.767454,620.52592 244.740174,620.83216 244.606414,621.09 Z M230.165614,599.74296 L230.213134,599.74296 C233.262334,599.74296 235.743934,597.26136 235.743934,594.21568 C235.743934,591.16648 233.262334,588.68752 230.213134,588.68752 L230.165614,588.68752 C227.116414,588.68752 224.634814,591.17 224.634814,594.21568 C224.634814,597.26136 227.116414,599.74296 230.165614,599.74296 Z M230.106654,590.33136 C230.148014,590.334 230.196414,590.334 230.243934,590.33136 C232.371774,590.34808 234.094814,592.08432 234.094814,594.21216 C234.094814,596.34 232.375294,598.07184 230.247454,598.09296 C230.209614,598.08944 230.169134,598.08944 230.127774,598.09296 C228.003454,598.07536 226.281294,596.34 226.281294,594.21216 C226.283934,592.07376 228.023694,590.334 230.106654,590.33136 Z" id="Page-1" stroke="#56CE11" stroke-width="0.7" fill="#24C90B"></path>
        </g>
    </g>
</svg>