<?xml version="1.0" encoding="UTF-8"?>
<svg width="75px" height="73px" viewBox="0 0 75 73" version="1.1" xmlns="http://www.w3.org/2000/svg" xmlns:xlink="http://www.w3.org/1999/xlink">
    <!-- Generator: Sketch 45.2 (43514) - http://www.bohemiancoding.com/sketch -->
    <title>Manual</title>
    <desc>Created with Sketch.</desc>
    <defs></defs>
    <g id="Page-1" stroke="none" stroke-width="1" fill="none" fill-rule="evenodd">
        <g id="Dev-Test-01" transform="translate(-192.000000, -311.000000)">
            <circle id="Oval-3" stroke="#2CCA0C" stroke-width="2" cx="227.5" cy="346.5" r="64.5"></circle>
            <g id="Page-1" transform="translate(228.000000, 346.500000) rotate(90.000000) translate(-228.000000, -346.500000) translate(205.500000, 324.500000)" fill="#24C90B">
                <path d="M9.07690909,6.94472727 L9.07690909,1.86627273 C9.07690909,0.984272727 8.361,0.268363636 7.479,0.268363636 C6.59618182,0.268363636 5.88109091,0.984272727 5.88109091,1.86627273 L5.88109091,7.092 M5.88109091,17.9517273 L5.88109091,41.4973636 C5.88109091,42.3793636 6.59618182,43.0952727 7.479,43.0952727 C8.361,43.0952727 9.07690909,42.3793636 9.07690909,41.4973636 L9.07690909,17.9075455" id="Fill-1"></path>
                <path d="M14.8009091,12.3938182 C14.8009091,8.43136364 11.5854545,5.22245455 7.62218182,5.22245455 C3.65972727,5.22245455 0.447545455,8.43136364 0.447545455,12.3938182 C0.447545455,16.3538182 3.65972727,19.566 7.62218182,19.566 C11.5854545,19.566 14.8009091,16.3538182 14.8009091,12.3938182 Z M3.64336364,12.3938182 C3.64336364,10.1986364 5.42372727,8.41827273 7.62218182,8.41827273 C9.82145455,8.41827273 11.6050909,10.1986364 11.6050909,12.3938182 C11.6050909,14.5898182 9.82145455,16.3701818 7.62218182,16.3701818 C5.42372727,16.3701818 3.64336364,14.5898182 3.64336364,12.3938182 Z" id="Fill-2"></path>
                <path d="M39.1189091,6.94472727 L39.1189091,1.86627273 C39.1189091,0.984272727 38.4038182,0.268363636 37.521,0.268363636 C36.639,0.268363636 35.9230909,0.984272727 35.9230909,1.86627273 L35.9230909,7.092 M35.9230909,17.9517273 L35.9230909,41.4973636 C35.9230909,42.3793636 36.639,43.0952727 37.521,43.0952727 C38.4038182,43.0952727 39.1189091,42.3793636 39.1189091,41.4973636 L39.1189091,17.9075455" id="Fill-3"></path>
                <path d="M44.8437273,12.3938182 C44.8437273,8.43136364 41.6282727,5.22245455 37.665,5.22245455 C33.7017273,5.22245455 30.4903636,8.43136364 30.4903636,12.3938182 C30.4903636,16.3538182 33.7017273,19.566 37.665,19.566 C41.6282727,19.566 44.8437273,16.3538182 44.8437273,12.3938182 Z M33.6861818,12.3938182 C33.6861818,10.1986364 35.4665455,8.41827273 37.665,8.41827273 C39.8642727,8.41827273 41.6470909,10.1986364 41.6470909,12.3938182 C41.6470909,14.5898182 39.8642727,16.3701818 37.665,16.3701818 C35.4665455,16.3701818 33.6861818,14.5898182 33.6861818,12.3938182 Z" id="Fill-4"></path>
                <path d="M21.222,36.4189091 L21.222,41.4973636 C21.222,42.3793636 21.9370909,43.0952727 22.8199091,43.0952727 C23.7019091,43.0952727 24.4178182,42.3793636 24.4178182,41.4973636 L24.4178182,36.2716364 M24.4178182,25.4119091 L24.4178182,1.86627273 C24.4178182,0.984272727 23.7019091,0.268363636 22.8199091,0.268363636 C21.9370909,0.268363636 21.222,0.984272727 21.222,1.86627273 L21.222,25.4560909" id="Fill-5"></path>
                <path d="M15.4971818,30.9698182 C15.4971818,34.9322727 18.7126364,38.1411818 22.6759091,38.1411818 C26.6391818,38.1411818 29.8505455,34.9322727 29.8505455,30.9698182 C29.8505455,27.0098182 26.6391818,23.7976364 22.6759091,23.7976364 C18.7126364,23.7976364 15.4971818,27.0098182 15.4971818,30.9698182 Z M26.6547273,30.9698182 C26.6547273,33.165 24.8743636,34.9453636 22.6759091,34.9453636 C20.4766364,34.9453636 18.6938182,33.165 18.6938182,30.9698182 C18.6938182,28.7738182 20.4766364,26.9934545 22.6759091,26.9934545 C24.8743636,26.9934545 26.6547273,28.7738182 26.6547273,30.9698182 Z" id="Fill-6"></path>
            </g>
        </g>
    </g>
</svg>